<svg xmlns="http://www.w3.org/2000/svg" width="75" height="auto" viewBox="0 0 219 67" fill="white">
    <path
        d="M26.4 1.9C11.6 5.7 1.8 18.5 1.8 34c0 9 2.7 15.5 9.2 22.1 16.1 16.3 41.9 12 52.1-8.8 1.9-4 2.3-6.4 2.3-13.8 0-8.5-.2-9.4-3.5-15.5-4-7.3-10.5-13-17.2-15C39.3 1.4 30.4.9 26.4 1.9zm15.5 7.8c6.3 2 14.1 9.9 15.9 16 4.6 15.5-5.2 31-20.8 32.9-13.5 1.5-25.2-7.1-28.1-20.7-2.1-9.7 2.8-20.5 11.9-26.1 6.4-4 13.3-4.7 21.1-2.1zM93.5 2c-9.2 1.7-15.1 5.8-19.7 13.9l-3.3 5.6-.3 22.2-.3 22.3H77V45.6c0-22.3.4-24.6 5.9-30.3 4-4.2 8-6.2 13.3-6.7 4.1-.4 4.3-.5 4.3-3.7 0-3.8-.8-4.1-7-2.9zM107 33.5V66h7V34.5l.3-32.1c.1-.4-1.5-.8-3.5-1l-3.8-.3v32.4zm13-29.2c0 3.4.2 3.6 4.2 4.2 7.7 1.3 14.7 6.6 18.2 13.7 7.7 15.3-1.5 33.5-18.1 36.3-4.1.6-4.3.9-4.3 4.1 0 3.1.3 3.4 3 3.4 5.5 0 16-5.2 20.5-10.1 5.2-5.7 7.6-11.3 8.2-18.8 1.6-18.9-8.9-32.2-27.9-35.6L120 .8v3.5zm60.5-2.6c-8.8 1.3-18.6 8.8-23.3 17.8-2.2 4.3-2.6 6.3-2.6 14 0 7.4.5 9.9 2.4 14 11.5 23.9 44.7 24.7 57.5 1.4 2.7-4.9 2.9-6.3 2.9-14.9 0-7.9-.4-10.3-2.3-14.2-6.3-12.9-20.4-20.3-34.6-18.1zm17.2 9.4c5.1 2.9 9.9 8.4 11.9 13.6 2.4 6.3 1.5 16.6-2 22.1-8.6 13.7-27.3 16.1-39.4 4.9-3.9-3.6-7.2-12-7.2-18.1 0-11.6 9.1-22.9 20-25 4.6-.8 12.9.4 16.7 2.5z" />
</svg>